<?xml version="1.0" encoding="UTF-8"?>
<svg version="1.1" xmlns="http://www.w3.org/2000/svg" width="512" height="477">
<path d="M0 0 C1.26551215 -0.00445784 2.5310243 -0.00891569 3.8348853 -0.01350862 C5.24722748 -0.01341932 6.65956966 -0.01322946 8.07191181 -0.01294994 C9.56610294 -0.0162485 11.06029318 -0.01997405 12.55448228 -0.02409142 C16.67103197 -0.03412046 20.78756707 -0.03782967 24.90412724 -0.04048073 C29.3398581 -0.0443811 33.77557737 -0.05395962 38.21130085 -0.0626936 C48.92875556 -0.08246546 59.64621123 -0.09252508 70.36367962 -0.10142139 C75.40888354 -0.10580306 80.45408642 -0.11117018 85.49928951 -0.11641026 C102.26751169 -0.13342317 119.03573322 -0.14791783 135.80396271 -0.155159 C140.15640673 -0.15706894 144.50885075 -0.15898926 148.86129475 -0.16094494 C150.48399201 -0.16167055 150.48399201 -0.16167055 152.13947103 -0.16241082 C169.66789493 -0.17071293 187.19625063 -0.19605263 204.72464474 -0.22852562 C222.71457714 -0.26158235 240.70447487 -0.2796065 258.6944378 -0.28280324 C268.79761248 -0.28496961 278.90068771 -0.29373684 289.00383282 -0.31926441 C297.60734176 -0.34095246 306.21072709 -0.34903117 314.81426027 -0.33929763 C319.20412148 -0.33474744 323.59372753 -0.33668082 327.98355389 -0.35605907 C332.00373403 -0.37365235 336.02347215 -0.37272444 340.04365674 -0.35716178 C341.49659883 -0.35477986 342.94957121 -0.3591396 344.40246692 -0.37099043 C352.34805875 -0.43177637 358.23754788 -0.27457336 364.98409748 4.13422108 C367.04269123 6.16937733 367.04269123 6.16937733 368.42159748 8.19672108 C368.89468342 8.86832264 369.36776936 9.5399242 369.85519123 10.23187733 C372.22424032 14.22401196 372.12775758 17.95869841 372.11831856 22.44636536 C372.12067079 23.20044478 372.12302302 23.95452421 372.12544653 24.73145452 C372.13214618 27.27866275 372.13167802 29.82582008 372.1312685 32.37303638 C372.13456652 34.20958577 372.13829196 36.04613442 372.14240998 37.88268214 C372.15244508 42.9455622 372.1561492 48.00843039 372.15879929 53.07131898 C372.16269786 58.52546308 372.17227648 63.97959775 372.18101215 69.43373585 C372.20078892 82.61320781 372.21084417 95.79268055 372.21973994 108.97216365 C372.22412073 115.1749495 372.22948807 121.3777345 372.23472881 127.58051968 C372.25174206 148.19356293 372.26623706 168.80660565 372.27347755 189.41965485 C372.27538752 194.77071795 372.27730619 200.12178104 372.2792635 205.47284412 C372.27950365 206.13764923 372.2797438 206.80245434 372.27999122 207.48740506 C372.28788462 229.04327103 372.31131704 250.59908199 372.34381944 272.15492393 C372.37811497 294.94155818 372.39782729 317.72816506 372.4011218 340.51482612 C372.40328907 352.93748398 372.41206949 365.36006098 372.43758297 377.78269482 C372.45925738 388.36064899 372.46735643 398.93850267 372.45761619 409.51647653 C372.45306209 414.91490237 372.45502221 420.31312072 372.47437763 425.71151829 C372.49194271 430.65318197 372.49106575 435.59448578 372.47548034 440.53615294 C372.47309414 442.32421965 372.47748003 444.11231086 372.48930899 445.90034004 C372.6041755 464.40914128 372.6041755 464.40914128 365.23409748 471.94672108 C356.88634934 477.56539771 349.3143359 477.56523011 339.52279377 477.515172 C338.04903362 477.5186316 336.57527606 477.5233982 335.10152388 477.52935374 C331.06461087 477.54185194 327.02791123 477.53569877 322.99099755 477.52639508 C318.632375 477.51960009 314.27378883 477.53008806 309.91517353 477.53833485 C301.38172391 477.55166956 292.84835347 477.5487956 284.31490076 477.54009692 C277.37913099 477.53331976 270.4433834 477.5324038 263.50761127 477.53566837 C262.02649588 477.53635792 262.02649588 477.53635792 260.51545897 477.5370614 C258.50950809 477.53802058 256.50355721 477.53899322 254.49760634 477.53997917 C235.69103595 477.5485323 216.88450944 477.53870014 198.07794625 477.52257808 C181.94361401 477.50917497 165.80934652 477.51150308 149.67501545 477.52533436 C130.93540204 477.54139153 112.19582708 477.54770833 93.45620775 477.53849757 C91.4576664 477.53754193 89.45912505 477.53659881 87.46058369 477.53566837 C86.47728192 477.53520555 85.49398015 477.53474272 84.48088136 477.53426587 C77.55403161 477.53167639 70.62720627 477.53604607 63.7003603 477.54310703 C55.25800493 477.55152374 46.81573324 477.54923828 38.37338746 477.5332648 C34.06657724 477.5253844 29.7599065 477.52228656 25.45309734 477.53221226 C21.5090323 477.54116444 17.56523577 477.53621776 13.62119502 477.5202796 C12.1960011 477.51693401 10.77078441 477.5186209 9.34560519 477.52590697 C0.17584014 477.56918293 -6.5077004 477.16858789 -14.26590252 471.94672108 C-19.32087767 466.77686013 -21.46250831 461.57820729 -21.51358318 454.36388111 C-21.49920208 453.54172611 -21.48482098 452.71957111 -21.47000408 451.87250233 C-21.47058819 450.98375919 -21.47117229 450.09501606 -21.4717741 449.17934132 C-21.46900739 446.26805801 -21.43798287 443.35782351 -21.40652752 440.44672108 C-21.39906009 438.41791817 -21.39336953 436.38910802 -21.38937664 434.3602953 C-21.37415987 429.04024545 -21.33491217 423.7206377 -21.29056072 418.4007616 C-21.24952254 412.96431933 -21.2313474 407.5278051 -21.21121502 402.09125233 C-21.16841407 391.43871515 -21.1002108 380.78650499 -21.01590252 370.13422108 C-22.84301266 370.14421383 -22.84301266 370.14421383 -24.70703411 370.15440845 C-36.21191611 370.21534451 -47.71676516 370.26025367 -59.22177219 370.28965759 C-65.13596503 370.30528285 -71.05002711 370.3264638 -76.96414471 370.36053944 C-82.67647994 370.39324477 -88.38868974 370.4110977 -94.10111141 370.41885281 C-96.27549621 370.42437627 -98.44987449 370.43516209 -100.62420559 370.45141125 C-103.68053815 370.4733339 -106.73635888 370.4761818 -109.79275799 370.47479725 C-111.12741352 370.49097599 -111.12741352 370.49097599 -112.48903179 370.50748158 C-119.7593991 370.47207205 -127.4139938 369.40728964 -133.39090252 364.94672108 C-139.21682541 358.70466083 -140.60949516 352.78888214 -140.53056622 344.41840076 C-140.53751174 343.46982574 -140.54445727 342.52125072 -140.55161327 341.54393101 C-140.56983751 338.38107673 -140.55963153 335.2189764 -140.54934978 332.05609608 C-140.55641049 329.78220529 -140.56515615 327.50831921 -140.57545757 325.2344408 C-140.59794257 319.06920761 -140.59501399 312.90423123 -140.5861361 306.73897266 C-140.58102346 301.58970748 -140.58832095 296.44049043 -140.59560817 291.2912302 C-140.61357519 278.44963697 -140.60719933 265.60822188 -140.58943837 252.76664019 C-140.57473996 241.62416025 -140.58937469 230.48194994 -140.61820854 219.33950472 C-140.64762724 207.88536519 -140.65806003 196.43139638 -140.64902633 184.97721195 C-140.64409724 178.55172717 -140.64631238 172.12645201 -140.66681385 165.70099354 C-140.68516712 159.65977641 -140.67921585 153.61906055 -140.65461445 147.57787037 C-140.64960583 145.3623476 -140.65309754 143.14678667 -140.6657629 140.93129444 C-140.68170053 137.90363449 -140.66673488 134.87762381 -140.64409161 131.85004139 C-140.65592733 130.97610107 -140.66776306 130.10216076 -140.67995745 129.2017374 C-140.57567352 122.32497461 -138.32210141 117.55215553 -133.53788763 112.60625553 C-127.3308669 107.1127256 -121.90528757 106.84697635 -113.99319744 106.9071703 C-112.48517559 106.90673222 -112.48517559 106.90673222 -110.94668865 106.90628529 C-107.62982783 106.90767655 -104.31319276 106.92322841 -100.99637127 106.93890858 C-98.69423324 106.94263942 -96.39209361 106.94548606 -94.08995342 106.94748402 C-88.03515509 106.95511481 -81.98045293 106.97475865 -75.92569256 106.99689198 C-69.74548932 107.01736226 -63.56527052 107.02648827 -57.38504314 107.03656483 C-45.26195405 107.05800497 -33.13893629 107.09213433 -21.01590252 107.13422108 C-21.02700558 106.00162357 -21.03810863 104.86902607 -21.04954815 103.70210743 C-21.15109294 93.00636306 -21.22594893 82.31071703 -21.27496338 71.61459923 C-21.30100984 66.11613336 -21.33631774 60.61805796 -21.39309978 55.11981678 C-21.44759565 49.80945934 -21.47736028 44.49947648 -21.49028873 39.18886089 C-21.49949707 37.16711948 -21.51747886 35.14539759 -21.5445528 33.12381649 C-21.58107676 30.2825213 -21.58583814 27.44275584 -21.58352947 24.60126209 C-21.60150585 23.77335163 -21.61948223 22.94544117 -21.63800335 22.09244251 C-21.58326991 15.82961381 -19.74831152 11.17654258 -16.01590252 6.13422108 C-11.05171629 1.55927872 -6.65922267 0.01085503 0 0 Z " fill="#117B42" transform="translate(140.01590251922607,-0.13422107696533203)"/>
<path d="M0 0 C20.13 0 40.26 0 61 0 C61 39.27 61 78.54 61 119 C124.03 119 187.06 119 252 119 C252.16121214 174.60027476 252.16121214 174.60027476 252.1953125 197.87890625 C252.20316695 203.1980799 252.2112256 208.51725313 252.21972656 213.83642578 C252.22078156 214.50307829 252.22183655 215.1697308 252.22292352 215.85658491 C252.24031091 226.61289664 252.2718407 237.36912267 252.30861118 248.12538362 C252.34604481 259.16789911 252.36794164 270.21036737 252.37635398 281.25294304 C252.381569 287.45387042 252.39382736 293.6546036 252.42292023 299.85546875 C252.45008597 305.69292367 252.45844251 311.53010453 252.45243073 317.36761665 C252.45353043 319.5089727 252.46147719 321.65033798 252.4768219 323.79163933 C252.49676758 326.71876863 252.49192214 329.64486759 252.48101807 332.57202148 C252.49266943 333.41640022 252.5043208 334.26077896 252.51632524 335.13074493 C252.44340089 342.38935684 250.3407528 347.60604827 245.25 352.8125 C236.90225186 358.43117664 229.33023842 358.43100904 219.53869629 358.38095093 C218.06493614 358.38441053 216.59117857 358.38917712 215.1174264 358.39513266 C211.08051339 358.40763087 207.04381374 358.40147769 203.00690007 358.39217401 C198.64827752 358.38537901 194.28969135 358.39586698 189.93107605 358.40411377 C181.39762643 358.41744848 172.86425599 358.41457453 164.33080328 358.40587585 C157.39503351 358.39909869 150.45928592 358.39818272 143.52351379 358.4014473 C142.0423984 358.40213684 142.0423984 358.40213684 140.53136149 358.40284032 C138.52541061 358.40379951 136.51945973 358.40477215 134.51350886 358.4057581 C115.70693847 358.41431122 96.90041196 358.40447907 78.09384876 358.388357 C61.95951653 358.37495389 45.82524904 358.37728201 29.69091797 358.39111328 C10.95130456 358.40717045 -7.7882704 358.41348726 -26.52788973 358.40427649 C-28.52643108 358.40332085 -30.52497243 358.40237774 -32.52351379 358.4014473 C-33.50681556 358.40098447 -34.49011733 358.40052164 -35.50321612 358.40004479 C-42.43006587 358.39745532 -49.35689121 358.40182499 -56.28373718 358.40888596 C-64.72609255 358.41730266 -73.16836424 358.4150172 -81.61071002 358.39904372 C-85.91752024 358.39116333 -90.22419098 358.38806548 -94.53100014 358.39799118 C-98.47506518 358.40694336 -102.41886171 358.40199669 -106.36290246 358.38605852 C-107.78809638 358.38271293 -109.21331307 358.38439983 -110.63849229 358.39168589 C-119.80825734 358.43496186 -126.49179788 358.03436681 -134.25 352.8125 C-139.32953237 347.61752372 -141.44692978 342.41242134 -141.49768066 335.16619873 C-141.48329956 334.33469299 -141.46891846 333.50318726 -141.45410156 332.64648438 C-141.45468567 331.74798767 -141.45526978 330.84949097 -141.45587158 329.92376709 C-141.45310449 326.98002286 -141.42207802 324.03731539 -141.390625 321.09375 C-141.38315771 319.04252678 -141.37746709 316.9912964 -141.37347412 314.94006348 C-141.35825626 309.56083217 -141.31900758 304.182038 -141.2746582 298.80297852 C-141.2336224 293.30621248 -141.21544538 287.80937531 -141.1953125 282.3125 C-141.15250962 271.5414754 -141.08430498 260.77077416 -141 250 C-140.36831154 249.99761165 -139.73662308 249.99522329 -139.08579254 249.99276257 C-123.69431687 249.93354999 -108.30302108 249.8579601 -92.91172028 249.76428509 C-85.46850503 249.71937627 -78.02533711 249.67995038 -70.58203125 249.65356445 C-64.09219572 249.63054445 -57.60251057 249.597102 -51.1127944 249.55129844 C-47.6785521 249.52741989 -44.24445823 249.5086561 -40.81013489 249.50238609 C-36.97020392 249.49275194 -33.1308134 249.46469877 -29.29101562 249.43237305 C-28.16028625 249.43380814 -27.02955688 249.43524323 -25.86456299 249.4367218 C-16.6276629 249.32687844 -9.68054069 247.68054069 -3 241 C1.15063511 234.27310862 1.14706262 227.46532333 1.12698364 219.80821228 C1.12854363 218.89189783 1.13010362 217.97558338 1.13171089 217.03150183 C1.13569422 213.9662159 1.13254157 210.90097964 1.12939453 207.83569336 C1.13074974 205.63605215 1.13253035 203.43641118 1.13470459 201.23677063 C1.13926436 195.2659006 1.1374954 189.29504784 1.1343255 183.3241775 C1.13179473 177.07781728 1.13414142 170.83145855 1.13571167 164.58509827 C1.13764768 153.42444945 1.13453929 142.26380697 1.12945233 131.10315967 C1.12498362 120.98568003 1.12576171 110.86821186 1.13037109 100.75073242 C1.1357234 88.99708764 1.13771428 77.24344845 1.13475883 65.48980242 C1.13319882 59.26958062 1.1329948 53.04936672 1.13629532 46.82914543 C1.13918084 40.98265609 1.13718574 35.13618845 1.13140106 29.28970146 C1.13007719 27.14225806 1.13046127 24.99481283 1.13266373 22.84737015 C1.13538978 19.91982335 1.13197617 16.99234641 1.12698364 14.06480408 C1.12921436 13.21188858 1.13144509 12.35897309 1.13374341 11.48021168 C1.13113566 10.69367602 1.12852791 9.90714036 1.12584114 9.09677029 C1.12567879 8.42146249 1.12551644 7.7461547 1.12534916 7.05038303 C1.01528646 4.48746702 1.01528646 4.48746702 0 0 Z " fill="#175B36" transform="translate(260,119)"/>
<path d="M0 0 C28.875 -0.0825 57.75 -0.165 87.5 -0.25 C96.61560547 -0.28641602 105.73121094 -0.32283203 115.12304688 -0.36035156 C126.25878906 -0.37841797 126.25878906 -0.37841797 131.47277832 -0.3817749 C135.11252607 -0.38549985 138.75204019 -0.4004829 142.39172363 -0.42230225 C147.03790243 -0.44978542 151.68374262 -0.45795609 156.32999516 -0.4522891 C158.03294298 -0.4534737 159.73590292 -0.46137826 161.43878078 -0.47686052 C177.26816435 -0.61406483 177.26816435 -0.61406483 184 4 C186.05859375 6.03515625 186.05859375 6.03515625 187.4375 8.0625 C187.91058594 8.73410156 188.38367188 9.40570313 188.87109375 10.09765625 C191.48434094 14.50129425 191.13703466 18.87855234 191.12025452 23.82670593 C191.12153615 25.19649911 191.12153615 25.19649911 191.12284368 26.59396487 C191.12449616 29.66642272 191.11898087 32.73882645 191.11352539 35.8112793 C191.11324344 38.00873819 191.1134014 40.20619717 191.1139679 42.40365601 C191.11425557 48.38056868 191.10836359 54.3574614 191.10139394 60.33436942 C191.0951555 66.57641229 191.09455621 72.81845559 191.09336853 79.0605011 C191.09061054 89.54106977 191.08435834 100.02163226 191.07543945 110.50219727 C191.06626204 121.29776981 191.05919428 132.09334036 191.05493164 142.88891602 C191.05466364 143.5610152 191.05439565 144.23311438 191.05411953 144.9255802 C191.05180672 150.77177151 191.0496539 156.61796287 191.04751682 162.46415424 C191.03810524 187.6427764 191.01818535 212.82137911 191 238 C127.97 238 64.94 238 0 238 C0 159.46 0 80.92 0 0 Z " fill="#20A265" transform="translate(321,0)"/>
<path d="M0 0 C63.03 0 126.06 0 191 0 C191 39.27 191 78.54 191 119 C127.97 119 64.94 119 0 119 C0 79.73 0 40.46 0 0 Z " fill="#107B41" transform="translate(321,238)"/>
<path d="M0 0 C43.81387631 -0.16121214 43.81387631 -0.16121214 62.171875 -0.1953125 C74.84837312 -0.21904841 87.52476491 -0.24695442 100.20117188 -0.30175781 C109.43327938 -0.34165155 118.66530063 -0.36743901 127.89749193 -0.37635398 C132.78499563 -0.38156441 137.67225258 -0.3937932 142.55967712 -0.42292023 C147.16270456 -0.45012935 151.76538428 -0.45843388 156.3684845 -0.45243073 C158.05510347 -0.4535285 159.74173442 -0.46144965 161.42828369 -0.4768219 C177.26814406 -0.61407873 177.26814406 -0.61407873 184 4 C186.05859375 6.03515625 186.05859375 6.03515625 187.4375 8.0625 C187.91058594 8.73410156 188.38367188 9.40570313 188.87109375 10.09765625 C190.71945218 13.21236406 191.12452676 15.76731581 191.12025452 19.30900574 C191.12232076 20.62506318 191.12232076 20.62506318 191.12442875 21.96770763 C191.12083064 22.931223 191.11723253 23.89473837 191.11352539 24.88745117 C191.11364593 25.91868009 191.11376646 26.949909 191.11389065 28.01238728 C191.11314328 31.35593625 191.10552297 34.69942973 191.09765625 38.04296875 C191.09618629 40.10502089 191.09516591 42.16707339 191.09460449 44.22912598 C191.0893579 51.881923 191.07539674 59.53471204 191.0625 67.1875 C191.041875 84.285625 191.02125 101.38375 191 119 C127.97 119 64.94 119 0 119 C0 79.73 0 40.46 0 0 Z " fill="#32C380" transform="translate(321,0)"/>
<path d="M0 0 C1.14928135 -0.00128164 1.14928135 -0.00128164 2.3217805 -0.00258917 C4.89673893 -0.00424017 7.47163263 0.00127122 10.04658508 0.00672913 C11.88936868 0.00701111 13.73215238 0.00685305 15.57493591 0.00628662 C20.58493886 0.00599907 25.59491798 0.01188905 30.60491538 0.01886058 C35.83797826 0.02510107 41.07104164 0.02569847 46.30410767 0.02688599 C56.21694229 0.02999724 66.12976591 0.03820788 76.04259568 0.04823548 C89.4354904 0.06149008 102.82838811 0.06689818 116.22128773 0.07273769 C137.32753115 0.08214789 158.43375137 0.10206819 179.53999329 0.12025452 C179.53999329 39.39025452 179.53999329 78.66025452 179.53999329 119.12025452 C163.03999329 119.12025452 146.53999329 119.12025452 129.53999329 119.12025452 C127.22999329 116.48025452 124.91999329 113.84025452 122.53999329 111.12025452 C116.20401277 107.08265753 109.4100168 107.67956441 102.0773468 107.68788147 C100.71671667 107.67885473 99.35609465 107.66852528 97.9954834 107.65699768 C94.31830751 107.62950831 90.64128626 107.62015422 86.96402097 107.61414361 C83.11492915 107.60473883 79.26595189 107.5785338 75.41693115 107.55413818 C68.1356642 107.5105272 60.85441955 107.48194713 53.57306188 107.4588148 C45.28036728 107.4317341 36.98778823 107.3878244 28.69517624 107.34252608 C11.64350815 107.24975721 -5.40818492 107.17804104 -22.46000671 107.12025452 C-22.5760741 95.28048646 -22.66481032 83.4408547 -22.71906757 71.60063267 C-22.74511403 66.1021668 -22.78042193 60.6040914 -22.83720398 55.10585022 C-22.89169984 49.79549278 -22.92146447 44.48550992 -22.93439293 39.17489433 C-22.94360126 37.15315292 -22.96158306 35.13143103 -22.988657 33.10984993 C-23.02518096 30.26855474 -23.02994234 27.42878928 -23.02763367 24.58729553 C-23.04561005 23.75938507 -23.06358643 22.93147461 -23.08210754 22.07847595 C-23.0273741 15.81564725 -21.19241571 11.16257602 -17.46000671 6.12025452 C-12.02181869 1.10847705 -7.18156829 -0.02909957 0 0 Z " fill="#20A365" transform="translate(141.4600067138672,-0.1202545166015625)"/>
<path d="M0 0 C3.96 0 7.92 0 12 0 C13.64037331 4.10093328 14.25003277 5.63717048 14.25447559 9.70305443 C14.26030779 10.62482581 14.26613998 11.5465972 14.27214891 12.49630105 C14.26836958 13.50028141 14.26459026 14.50426177 14.26069641 15.53866577 C14.26452196 16.61197321 14.26834751 17.68528064 14.27228898 18.79111254 C14.28262204 22.39383163 14.27862618 25.99639144 14.2746582 29.59912109 C14.27900451 32.17960254 14.28418738 34.76008269 14.29014587 37.34056091 C14.30289603 43.6261425 14.30468615 49.91168137 14.30234561 56.19727372 C14.30056255 61.30674877 14.30231184 66.41621085 14.30657005 71.52568436 C14.30716524 72.25290585 14.30776043 72.98012735 14.30837366 73.72938586 C14.30958541 75.20674907 14.31079954 76.68411229 14.31201603 78.16147549 C14.32289291 92.01688979 14.32072845 105.87227975 14.31463119 119.72769542 C14.3094626 132.4003044 14.32071564 145.0728365 14.33972941 157.74543028 C14.35910641 170.75998247 14.367364 183.77449829 14.36360615 196.789065 C14.36169381 204.09479847 14.36418486 211.40046651 14.37832069 218.7061882 C14.39147903 225.57622226 14.3889763 232.44609992 14.37590981 239.3161335 C14.37353951 241.83846272 14.37629486 244.3608027 14.38453293 246.88311958 C14.3949634 250.32471517 14.38692886 253.76579024 14.3742218 257.20736694 C14.38159609 258.20688586 14.38897037 259.20640477 14.39656812 260.23621213 C14.3316348 268.5886679 12.27212892 274.24073144 6.609375 280.4921875 C1.3889983 285.38312296 -4.87507294 286.12662784 -11.72639465 286.12025452 C-13.44057083 286.12231651 -13.44057083 286.12231651 -15.18937683 286.12442017 C-16.43375015 286.12082489 -17.67812347 286.11722961 -18.96020508 286.11352539 C-20.27766724 286.11367142 -21.59512939 286.11381744 -22.95251465 286.1139679 C-26.55748919 286.11425444 -30.16243037 286.10838074 -33.76739717 286.10139394 C-37.537694 286.09513668 -41.30799162 286.09455472 -45.07829285 286.09336853 C-52.21445111 286.09026221 -59.35059403 286.08205825 -66.48674554 286.07201904 C-74.61246051 286.06083619 -82.73817621 286.05534198 -90.86389697 286.05032361 C-107.57594171 286.03987506 -124.28796531 286.02153826 -141 286 C-141 274.12 -141 262.24 -141 250 C-135.42834961 249.97812622 -135.42834961 249.97812622 -129.74414062 249.95581055 C-117.46658142 249.90545568 -105.18915345 249.83900839 -92.91172028 249.76428509 C-85.46850503 249.71937627 -78.02533711 249.67995038 -70.58203125 249.65356445 C-64.09219572 249.63054445 -57.60251057 249.597102 -51.1127944 249.55129844 C-47.6785521 249.52741989 -44.24445823 249.5086561 -40.81013489 249.50238609 C-36.97020392 249.49275194 -33.1308134 249.46469877 -29.29101562 249.43237305 C-28.16028625 249.43380814 -27.02955688 249.43524323 -25.86456299 249.4367218 C-16.6276629 249.32687844 -9.68054069 247.68054069 -3 241 C1.15063511 234.27310862 1.14706262 227.46532333 1.12698364 219.80821228 C1.12854363 218.89189783 1.13010362 217.97558338 1.13171089 217.03150183 C1.13569422 213.9662159 1.13254157 210.90097964 1.12939453 207.83569336 C1.13074974 205.63605215 1.13253035 203.43641118 1.13470459 201.23677063 C1.13926436 195.2659006 1.1374954 189.29504784 1.1343255 183.3241775 C1.13179473 177.07781728 1.13414142 170.83145855 1.13571167 164.58509827 C1.13764768 153.42444945 1.13453929 142.26380697 1.12945233 131.10315967 C1.12498362 120.98568003 1.12576171 110.86821186 1.13037109 100.75073242 C1.1357234 88.99708764 1.13771428 77.24344845 1.13475883 65.48980242 C1.13319882 59.26958062 1.1329948 53.04936672 1.13629532 46.82914543 C1.13918084 40.98265609 1.13718574 35.13618845 1.13140106 29.28970146 C1.13007719 27.14225806 1.13046127 24.99481283 1.13266373 22.84737015 C1.13538978 19.91982335 1.13197617 16.99234641 1.12698364 14.06480408 C1.12921436 13.21188858 1.13144509 12.35897309 1.13374341 11.48021168 C1.13113566 10.69367602 1.12852791 9.90714036 1.12584114 9.09677029 C1.12567879 8.42146249 1.12551644 7.7461547 1.12534916 7.05038303 C1.01528646 4.48746702 1.01528646 4.48746702 0 0 Z " fill="#0E3520" transform="translate(260,119)"/>
<path d="M0 0 C11.22 0 22.44 0 34 0 C42.91 17.82 51.82 35.64 61 54 C63.64 48.72 66.28 43.44 69 38 C71.33397237 33.57026742 73.68013972 29.15318458 76.0625 24.75 C76.63548828 23.68265625 77.20847656 22.6153125 77.79882812 21.515625 C78.94627284 19.38852839 80.11342512 17.2719328 81.30102539 15.16699219 C83.06350251 12.00575822 83.06350251 12.00575822 84.43139648 8.55957031 C85.99892965 5.11501211 87.29718001 2.65862365 90 0 C95.39064306 -1.46654122 100.41316008 -1.14624227 105.9375 -0.75 C107.39886929 -0.68973735 108.86047733 -0.63499629 110.32226562 -0.5859375 C113.88650938 -0.45434609 117.44172659 -0.2477862 121 0 C119.76360314 3.27598741 118.38520645 6.20461269 116.5234375 9.16796875 C116.02569824 9.96549561 115.52795898 10.76302246 115.01513672 11.5847168 C114.4738916 12.44363525 113.93264648 13.30255371 113.375 14.1875 C112.1974754 16.07264111 111.02041351 17.9580713 109.84375 19.84375 C109.21984375 20.84148437 108.5959375 21.83921875 107.953125 22.8671875 C104.5704791 28.29295153 101.22353423 33.7406415 97.875 39.1875 C97.2032373 40.2794165 96.53147461 41.37133301 95.83935547 42.49633789 C90.20793314 51.6530608 84.59685151 60.82211214 79 70 C84.16992042 80.08016447 90.2577613 89.59996968 96.25341797 99.20068359 C101.19356666 107.11845615 106.0968221 115.05929509 111 123 C111.54060059 123.87543457 112.08120117 124.75086914 112.63818359 125.65283203 C114.19904428 128.18353879 115.75642363 130.71634932 117.3125 133.25 C117.78703613 134.01916748 118.26157227 134.78833496 118.75048828 135.58081055 C122 140.88460427 122 140.88460427 122 142 C111.11 142 100.22 142 89 142 C82.25547685 129.71533283 75.57829441 117.41531327 69.18652344 104.94311523 C66.02294486 98.81105648 62.61898738 92.87471188 59 87 C58.64550781 87.74378906 58.29101562 88.48757812 57.92578125 89.25390625 C53.59707483 98.13142281 48.82311015 106.70902086 43.92797852 115.28588867 C40.02707013 122.13578211 36.26066697 129.04095591 32.62744141 136.03637695 C30.09115465 140.90884535 30.09115465 140.90884535 29 142 C26.55169574 142.08843793 24.13179401 142.11528752 21.68359375 142.09765625 C20.95253922 142.0962413 20.22148468 142.09482635 19.46827698 142.09336853 C17.12464368 142.08775408 14.78110461 142.07519922 12.4375 142.0625 C10.85221492 142.05748686 9.26692834 142.05292363 7.68164062 142.04882812 C3.7877239 142.03777997 -0.10612205 142.02050572 -4 142 C-0.73626212 135.87358848 2.56946214 129.91030777 6.5 124.1875 C11.34402379 117.05234583 15.97993353 109.79502571 20.58666992 102.50488281 C23.59828756 97.74714366 26.63778438 93.01300088 29.75 88.3203125 C30.3483667 87.41498779 30.9467334 86.50966309 31.56323242 85.5769043 C32.70257402 83.85779445 33.84826766 82.14287221 35.0012207 80.43286133 C35.51257568 79.65966553 36.02393066 78.88646973 36.55078125 78.08984375 C37.00106689 77.41816162 37.45135254 76.74647949 37.9152832 76.05444336 C39.23038661 73.56364995 39.84345869 71.82856683 40 69 C38.75327112 66.04272726 38.75327112 66.04272726 36.765625 63.0546875 C36.41672714 62.49186066 36.06782928 61.92903381 35.70835876 61.34915161 C34.56851324 59.51598275 33.40924363 57.69595041 32.25 55.875 C31.05937167 53.9685727 29.87400789 52.058935 28.68864441 50.14923096 C27.89905559 48.87824954 27.10772417 47.60834904 26.31465149 46.33953857 C23.16009642 41.28916803 20.13676748 36.17310353 17.1875 31 C12.82032371 23.36142997 8.3067583 15.81858236 3.70581055 8.31835938 C3.22152588 7.52107422 2.73724121 6.72378906 2.23828125 5.90234375 C1.80555908 5.19585693 1.37283691 4.48937012 0.92700195 3.76147461 C0 2 0 2 0 0 Z " fill="#FCFDFC" transform="translate(72,167)"/>
<path d="M0 0 C16.17 0 32.34 0 49 0 C49 39.27 49 78.54 49 119 C33.49 119 17.98 119 2 119 C1.97494385 115.57278564 1.9498877 112.14557129 1.92407227 108.61450195 C1.84064609 97.29889859 1.75200264 85.98334013 1.66066074 74.66779804 C1.60540069 67.80629975 1.55193066 60.94479626 1.50268555 54.08325195 C1.4551684 47.46317497 1.40264844 40.84314993 1.34705925 34.22313499 C1.32665781 31.69576491 1.30794109 29.16838064 1.29092598 26.64098549 C1.26683319 23.10476173 1.236785 19.56863549 1.20532227 16.0324707 C1.1995668 14.98446289 1.19381134 13.93645508 1.18788147 12.85668945 C1.17809265 11.89060257 1.16830383 10.92451569 1.15821838 9.92915344 C1.15176583 9.09308721 1.14531328 8.25702097 1.1386652 7.39561939 C1.0293256 4.54375517 1.0293256 4.54375517 0 0 Z " fill="#107C41" transform="translate(272,119)"/>
<path d="M0 0 C0.33 0 0.66 0 1 0 C1.08765069 4.02069425 1.14061018 8.0411401 1.1875 12.0625 C1.21263672 13.19623047 1.23777344 14.32996094 1.26367188 15.49804688 C1.3447152 24.76400071 -0.08353529 30.52941024 -6.390625 37.4921875 C-11.6110017 42.38312296 -17.87507294 43.12662784 -24.72639465 43.12025452 C-26.44057083 43.12231651 -26.44057083 43.12231651 -28.18937683 43.12442017 C-29.43375015 43.12082489 -30.67812347 43.11722961 -31.96020508 43.11352539 C-33.27766724 43.11367142 -34.59512939 43.11381744 -35.95251465 43.1139679 C-39.55748919 43.11425444 -43.16243037 43.10838074 -46.76739717 43.10139394 C-50.537694 43.09513668 -54.30799162 43.09455472 -58.07829285 43.09336853 C-65.21445111 43.09026221 -72.35059403 43.08205825 -79.48674554 43.07201904 C-87.61246051 43.06083619 -95.73817621 43.05534198 -103.86389697 43.05032361 C-120.57594054 43.03987506 -137.28796771 43.02208738 -154 43 C-154 35.08 -154 27.16 -154 19 C-152.2933316 18.99857498 -150.58666321 18.99714996 -148.82827759 18.99568176 C-132.73179366 18.97900059 -116.6355724 18.93648812 -100.53922462 18.86790943 C-92.2642385 18.83331248 -83.98941803 18.80791088 -75.71435547 18.80444336 C-68.49857807 18.80139607 -61.28309612 18.78080327 -54.06743276 18.73947543 C-50.24961459 18.71821267 -46.43221572 18.70550985 -42.61433792 18.71384621 C-39.01405015 18.7214295 -35.41460895 18.70539286 -31.81447601 18.67193985 C-29.87697006 18.65988276 -27.93935924 18.67223982 -26.00186157 18.68556213 C-18.40098505 18.58666161 -12.25504366 17.56693557 -6 13 C-2.69865244 9.11185634 -0.48388645 5.16145549 0 0 Z " fill="#124529" transform="translate(273,362)"/>
<path d="M0 0 C19.12405826 -0.09272551 38.24805271 -0.16404469 57.37228966 -0.20724869 C66.25266565 -0.22784519 75.13289911 -0.25590988 84.01318359 -0.30175781 C91.75620263 -0.341715 99.49911841 -0.36745397 107.24223769 -0.37635398 C111.33952284 -0.38155375 115.43651266 -0.39371378 119.53370285 -0.42292023 C123.39641422 -0.45023007 127.25871081 -0.45841389 131.12150955 -0.45243073 C132.53315745 -0.45352405 133.94482036 -0.46138506 135.35638428 -0.4768219 C144.66236084 -0.57353218 152.87110103 0.01359615 160.4375 5.89453125 C165.14600943 11.67422658 167.11572289 16.45229607 167 24 C153.69807255 25.23261104 153.69807255 25.23261104 149.69140625 22.32421875 C148 20.1875 148 20.1875 146.6875 18.04296875 C143.6083591 14.31521252 139.83075101 13.18329502 135.15622139 12.71528053 C131.61374617 12.59051431 128.0820513 12.56360639 124.53735352 12.56762695 C123.17672338 12.55860021 121.81610136 12.54827076 120.45549011 12.53674316 C116.77831422 12.5092538 113.10129298 12.4998997 109.42402768 12.49388909 C105.57493586 12.48448432 101.7259586 12.45827928 97.87693787 12.43388367 C90.59567092 12.39027269 83.31442627 12.36169262 76.0330686 12.33856028 C67.74037399 12.31147958 59.44779494 12.26756989 51.15518296 12.22227156 C34.10351272 12.12950268 17.05182142 12.05838343 0 12 C0 8.04 0 4.08 0 0 Z " fill="#1E935C" transform="translate(119,95)"/>
<path d="M0 0 C0.33 0 0.66 0 1 0 C1.42652713 6.82443405 -0.13627573 11.79439425 -3.5625 17.6875 C-10.93504487 24.68196565 -18.90131696 25.72186305 -28.70166016 25.56762695 C-29.93207031 25.56835709 -31.16248047 25.56908722 -32.43017578 25.56983948 C-35.77307306 25.56697198 -39.1143875 25.54206378 -42.45700502 25.50696969 C-45.9616346 25.47551232 -49.46628984 25.47276032 -52.97103882 25.46684265 C-59.59369179 25.45136062 -66.21592741 25.41040979 -72.83839738 25.3600952 C-80.38377115 25.30402478 -87.92916584 25.276671 -95.4746964 25.25161803 C-110.98337847 25.19948789 -126.49161877 25.11063868 -142 25 C-142 21.04 -142 17.08 -142 13 C-140.46428345 12.99413376 -138.92856689 12.98826752 -137.34631348 12.98222351 C-122.86800684 12.92499086 -108.38986909 12.85240245 -93.91172028 12.76428509 C-86.46850503 12.71937627 -79.02533711 12.67995038 -71.58203125 12.65356445 C-65.09219572 12.63054445 -58.60251057 12.597102 -52.1127944 12.55129844 C-48.6785521 12.52741989 -45.24445823 12.5086561 -41.81013489 12.50238609 C-37.97020392 12.49275194 -34.1308134 12.46469877 -30.29101562 12.43237305 C-29.16028625 12.43380814 -28.02955688 12.43524323 -26.86456299 12.4367218 C-15.88206537 12.30612015 -9.43982527 9.43982527 -1.6875 1.6875 C-1.130625 1.130625 -0.57375 0.57375 0 0 Z " fill="#0B2A1A" transform="translate(261,356)"/>
<path d="M0 0 C4.62 0 9.24 0 14 0 C14 39.27 14 78.54 14 119 C10.04 119 6.08 119 2 119 C1.98969254 117.58290237 1.97938507 116.16580475 1.96876526 114.70576477 C1.8710661 101.3597348 1.76839263 88.01375089 1.66066074 74.66779804 C1.60540069 67.80629975 1.55193066 60.94479626 1.50268555 54.08325195 C1.4551684 47.46317497 1.40264844 40.84314993 1.34705925 34.22313499 C1.32665781 31.69576491 1.30794109 29.16838064 1.29092598 26.64098549 C1.26683319 23.10476173 1.236785 19.56863549 1.20532227 16.0324707 C1.1995668 14.98446289 1.19381134 13.93645508 1.18788147 12.85668945 C1.17809265 11.89060257 1.16830383 10.92451569 1.15821838 9.92915344 C1.15176583 9.09308721 1.14531328 8.25702097 1.1386652 7.39561939 C1.0293256 4.54375517 1.0293256 4.54375517 0 0 Z " fill="#0E703B" transform="translate(272,119)"/>
<path d="M0 0 C3.96 0 7.92 0 12 0 C13.67181512 4.17953779 14.24970174 5.76025907 14.24050903 9.92915344 C14.24325836 10.89524033 14.24600769 11.86132721 14.24884033 12.85668945 C14.24164978 13.90469727 14.23445923 14.95270508 14.22705078 16.0324707 C14.22734283 17.14510788 14.22763489 18.25774506 14.22793579 19.40409851 C14.22654357 23.07807236 14.21098715 26.75184287 14.1953125 30.42578125 C14.19158199 32.97454213 14.1887352 35.52330444 14.18673706 38.07206726 C14.17988361 44.09265587 14.1641241 50.11315733 14.14403808 56.13371104 C14.12166238 62.98979267 14.11068145 69.84587784 14.10064721 76.70198691 C14.07975735 90.80136612 14.04418767 104.90067629 14 119 C10.04 119 6.08 119 2 119 C1.98969254 117.58290237 1.97938507 116.16580475 1.96876526 114.70576477 C1.8710661 101.3597348 1.76839263 88.01375089 1.66066074 74.66779804 C1.60540069 67.80629975 1.55193066 60.94479626 1.50268555 54.08325195 C1.4551684 47.46317497 1.40264844 40.84314993 1.34705925 34.22313499 C1.32665781 31.69576491 1.30794109 29.16838064 1.29092598 26.64098549 C1.26683319 23.10476173 1.236785 19.56863549 1.20532227 16.0324707 C1.1995668 14.98446289 1.19381134 13.93645508 1.18788147 12.85668945 C1.17809265 11.89060257 1.16830383 10.92451569 1.15821838 9.92915344 C1.15176583 9.09308721 1.14531328 8.25702097 1.1386652 7.39561939 C1.0293256 4.54375517 1.0293256 4.54375517 0 0 Z " fill="#094826" transform="translate(260,119)"/>
<path d="M0 0 C9.41234064 -0.47590486 16.44261257 -0.69503421 23.8125 5.53125 C25.5 7.125 25.5 7.125 28 10 C28 10.66 28 11.32 28 12 C23.89871647 12.48488081 20.08561106 12.68436558 16 12 C13.79649779 10.18907577 12.38881257 8.29422426 10.734375 5.98046875 C7.85605889 2.69374293 4.1576659 1.90507013 0 1 C0 0.67 0 0.34 0 0 Z " fill="#13603C" transform="translate(243,107)"/>
</svg>
